<svg width="366" height="64" viewBox="0 0 366 64" fill="none" xmlns="http://www.w3.org/2000/svg">
<path d="M58.2069 27.744L36.6482 18.336L15.0895 27.744L9.08582 12.016L36.6482 0L64.2106 12.016L58.2069 27.744Z" fill="#121110"/>
<path d="M27.4661 64L0 52.096L6.00368 36.384L27.4661 45.664L49.0247 36.384L55.0284 52.096L27.4661 64Z" fill="#121110"/>
<path d="M270.956 48.496V44.88C269.39 46.768 267.649 47.92 265.572 48.576C257.055 51.232 248.315 45.632 247.004 36.656C246.285 31.744 247.004 27.136 250.072 23.104C253.875 18.144 260.938 16.24 266.61 18.688C267.888 19.248 269.023 20.128 270.301 20.896C270.301 14.944 270.301 23.696 270.301 17.648H278.562C278.562 18.032 278.562 32.864 278.578 47.28C278.578 48.192 278.386 48.528 277.412 48.496C275.319 48.416 273.225 48.48 270.956 48.48V48.496ZM255.09 33.648C255.09 33.84 255.09 34.272 255.153 34.688C255.553 38.624 258.525 41.52 262.376 41.696C266.355 41.888 269.63 39.504 270.205 35.664C270.461 34.016 270.365 32.24 270.046 30.608C269.566 28.08 267.841 26.416 265.428 25.552C260.139 23.664 255.074 27.52 255.074 33.632L255.09 33.648Z" fill="#121110"/>
<path d="M233.854 48.496V44.88C232.288 46.768 230.546 47.92 228.469 48.576C219.952 51.232 211.212 45.632 209.902 36.656C209.183 31.744 209.902 27.136 212.97 23.104C216.773 18.144 223.835 16.24 229.508 18.688C230.786 19.248 231.92 20.128 233.199 20.896V6.46399H241.46V7.59999C241.46 22.016 241.46 32.896 241.476 47.312C241.476 48.224 241.284 48.56 240.309 48.528C238.216 48.448 236.123 48.512 233.854 48.512V48.496ZM217.987 33.648C217.987 33.84 217.987 34.272 218.051 34.688C218.45 38.624 221.422 41.52 225.273 41.696C229.252 41.888 232.528 39.504 233.103 35.664C233.358 34.016 233.263 32.24 232.943 30.608C232.464 28.08 230.738 26.416 228.325 25.552C223.036 23.664 217.971 27.52 217.971 33.632L217.987 33.648Z" fill="#121110"/>
<path d="M293.055 45.04V48.416H285.593V6.48H293.662V21.008C293.902 20.928 294.061 20.928 294.141 20.848C298.024 16.64 307.516 16.256 312.932 21.872C319.707 28.88 318.509 41.984 310.408 47.008C305.694 49.936 300.725 50.096 295.819 47.296C294.86 46.736 294.061 45.888 293.039 45.04H293.055ZM293.63 33.408C293.614 38.88 297.449 42.416 302.53 41.616C305.998 41.072 308.586 38.272 308.922 34.72C309.337 30.208 307.484 26.816 303.92 25.568C299.542 24.016 293.582 26.352 293.646 33.408H293.63Z" fill="#121110"/>
<path d="M106.28 18.432H113.742V22.064C115.356 20.096 117.145 18.928 119.271 18.288C127.771 15.728 136.24 21.136 137.71 30.144C138.525 35.12 137.726 39.792 134.546 43.872C130.424 49.152 122.786 50.816 117.129 47.664C116.219 47.152 115.404 46.48 114.413 45.792V57.6H106.296V18.432H106.28ZM129.641 33.44C129.641 29.68 127.771 26.72 124.687 25.6C119.75 23.808 114.892 26.864 114.365 32.064C113.902 36.672 115.659 40.016 119.207 41.28C124.559 43.184 129.641 39.36 129.641 33.44Z" fill="#121110"/>
<path d="M344.442 36.192C345.066 39.232 347.398 41.376 350.626 41.952C353.822 42.528 356.778 41.856 359.542 40.208C360.054 39.904 360.549 39.552 361.188 39.136C362.307 40.96 363.409 42.768 364.56 44.672C362.69 46.288 360.613 47.488 358.312 48.272C351.105 50.72 343.068 48.352 338.946 42.592C334.951 37.008 335.095 29.104 339.329 23.648C343.452 18.304 350.994 16.224 357.337 18.672C363.233 20.944 366.685 26.944 365.886 33.504C365.673 35.2853 364.671 36.176 362.882 36.176H344.442V36.192ZM357.928 30.352C357.928 27.008 355.452 24.56 352.016 24.352C348.325 24.128 344.922 26.816 344.49 30.352H357.928Z" fill="#121110"/>
<path d="M149.806 36.192C150.461 38.624 151.787 40.352 153.976 41.296C157.508 42.8 160.943 42.32 164.283 40.624C165.065 40.224 165.801 39.712 166.679 39.184L170.035 44.688C167.75 46.672 165.193 48 162.317 48.72C154.631 50.624 146.818 47.376 143.334 40.864C140.283 35.136 141.145 27.744 145.428 22.896C149.678 18.096 156.836 16.368 162.828 18.704C168.773 21.008 172.24 27.184 171.329 33.776C171.105 35.3867 170.173 36.192 168.533 36.192H151.228C150.812 36.192 150.381 36.192 149.822 36.192H149.806ZM149.902 30.336H163.356C163.563 27.36 161.215 24.816 157.955 24.384C154.12 23.888 150.637 26.416 149.918 30.336H149.902Z" fill="#121110"/>
<path d="M176.73 18.432H184.224V20.944C184.591 20.704 184.783 20.576 184.975 20.432C188.506 17.712 192.469 17.072 196.703 18.192C200.89 19.312 203.734 22.992 204.245 27.712C204.325 28.416 204.373 29.136 204.373 29.84C204.373 35.712 204.373 41.584 204.389 47.456C204.389 48.208 204.229 48.544 203.398 48.512C201.337 48.448 199.26 48.448 197.199 48.512C196.352 48.528 196.192 48.208 196.192 47.456C196.224 42.256 196.192 37.072 196.192 31.872C196.192 31.344 196.192 30.8 196.144 30.272C195.92 27.168 193.779 25.12 190.727 25.072C187.532 25.024 185.247 27.008 184.943 30.144C184.895 30.704 184.879 31.28 184.879 31.856C184.879 36.944 184.879 42.032 184.879 47.12C184.879 47.536 184.879 47.952 184.879 48.432H176.73V18.432Z" fill="#121110"/>
<path d="M100.528 22.256L96.4689 27.2C96.1334 26.944 95.8458 26.704 95.5581 26.48C93.8484 25.152 91.931 24.368 89.7419 24.4C89.0388 24.4 88.3038 24.512 87.6647 24.784C86.2106 25.392 86.0348 27.152 87.3611 28.016C88.2399 28.592 89.2625 28.992 90.2213 29.44C92.2825 30.4 94.4077 31.248 96.421 32.32C99.5049 33.952 101.183 36.48 101.007 40.096C100.815 43.824 98.9137 46.352 95.638 47.92C89.8218 50.72 81.7525 49.04 77.4862 44.192C76.9749 43.616 76.8631 43.232 77.4383 42.592C78.6367 41.28 79.7232 39.872 80.9376 38.416C81.2892 38.736 81.5928 39.008 81.8963 39.28C84.0055 41.152 86.3864 42.448 89.2785 42.432C90.1733 42.432 91.1001 42.192 91.9629 41.888C92.7459 41.616 93.1773 40.944 93.2252 40.064C93.2732 39.168 92.8418 38.544 92.0748 38.192C90.5568 37.488 89.0069 36.864 87.5049 36.128C85.6034 35.168 83.654 34.256 81.8963 33.088C77.2945 30.048 77.8058 22.528 82.3917 19.616C87.5208 16.368 96.1493 17.376 100.256 21.856C100.352 21.952 100.416 22.08 100.543 22.272L100.528 22.256Z" fill="#121110"/>
<path d="M322.631 6.39999C325.268 6.39999 327.761 6.39999 330.253 6.39999C330.429 6.39999 330.589 6.44799 330.813 6.46399V48.496C330.062 48.496 329.326 48.496 328.607 48.496C327.01 48.496 325.396 48.432 323.798 48.512C322.823 48.56 322.631 48.208 322.631 47.296C322.663 38.048 322.647 28.8 322.647 19.552C322.647 14.432 322.647 12.832 322.647 7.71199V6.39999H322.631Z" fill="#121110"/>
</svg>
