<svg width="1080" height="569" viewBox="0 0 1080 569" fill="none" xmlns="http://www.w3.org/2000/svg">
<g clip-path="url(#clip0_2_2577)">
<rect width="1128" height="569" transform="translate(-24)" fill="white"/>
<path d="M32.3559 560.15L11.4835 551.012L-9.38892 560.15L-15.2065 544.884L11.4835 533.204L38.1736 544.884L32.3559 560.15Z" fill="#222222"/>
<path d="M2.57952 595.377L-23.9995 583.82L-18.193 568.543L2.57952 577.569L23.4519 568.543L29.2696 583.82L2.57952 595.377Z" fill="#222222"/>
<path d="M316.576 560.15L295.704 551.012L274.831 560.15L269.014 544.884L295.704 533.204L322.394 544.884L316.576 560.15Z" fill="#222222"/>
<path d="M286.8 595.377L260.221 583.82L266.027 568.543L286.8 577.569L307.672 568.543L313.49 583.82L286.8 595.377Z" fill="#222222"/>
<path d="M600.796 560.15L579.924 551.012L559.052 560.15L553.234 544.884L579.924 533.204L606.614 544.884L600.796 560.15Z" fill="#222222"/>
<path d="M571.02 595.377L544.441 583.82L550.247 568.543L571.02 577.569L591.892 568.543L597.71 583.82L571.02 595.377Z" fill="#222222"/>
<path d="M885.017 560.15L864.144 551.012L843.272 560.15L837.454 544.884L864.144 533.204L890.834 544.884L885.017 560.15Z" fill="#222222"/>
<path d="M855.24 595.377L828.661 583.82L834.468 568.543L855.24 577.569L876.113 568.543L881.93 583.82L855.24 595.377Z" fill="#222222"/>
<path d="M103.411 542.386L82.5382 533.249L61.6658 542.386L55.8481 527.109L82.5382 515.44L109.228 527.12L103.411 542.386Z" fill="#222222"/>
<path d="M73.6342 577.614L47.0552 566.056L52.8728 550.779L73.6342 559.794L94.5177 550.779L100.324 566.056L73.6342 577.614Z" fill="#222222"/>
<path d="M387.631 542.386L366.758 533.249L345.886 542.386L340.068 527.109L366.758 515.44L393.448 527.12L387.631 542.386Z" fill="#222222"/>
<path d="M357.854 577.614L331.275 566.056L337.093 550.779L357.854 559.794L378.738 550.779L384.544 566.056L357.854 577.614Z" fill="#222222"/>
<path d="M671.851 542.386L650.979 533.249L630.106 542.386L624.289 527.109L650.979 515.44L677.669 527.12L671.851 542.386Z" fill="#222222"/>
<path d="M642.075 577.614L615.496 566.056L621.313 550.779L642.075 559.794L662.958 550.779L668.765 566.056L642.075 577.614Z" fill="#222222"/>
<path d="M956.071 542.386L935.199 533.249L914.326 542.386L908.509 527.109L935.199 515.44L961.889 527.12L956.071 542.386Z" fill="#222222"/>
<path d="M926.295 577.614L899.716 566.056L905.533 550.779L926.295 559.794L947.178 550.779L952.985 566.056L926.295 577.614Z" fill="#222222"/>
<path d="M32.3559 489.106L11.4835 479.957L-9.3889 489.095L-15.2065 473.829L11.4835 462.149L38.1736 473.829L32.3559 489.106Z" fill="#222222"/>
<path d="M2.59064 524.322L-23.9995 512.765L-18.1819 497.499L2.59064 506.514L23.463 497.499L29.2807 512.765L2.59064 524.322Z" fill="#222222"/>
<path d="M316.576 489.106L295.704 479.957L274.831 489.095L269.014 473.829L295.704 462.149L322.394 473.829L316.576 489.106Z" fill="#222222"/>
<path d="M286.811 524.322L260.221 512.765L266.038 497.499L286.811 506.514L307.683 497.499L313.501 512.765L286.811 524.322Z" fill="#222222"/>
<path d="M600.796 489.106L579.924 479.957L559.052 489.095L553.234 473.829L579.924 462.149L606.614 473.829L600.796 489.106Z" fill="#222222"/>
<path d="M571.031 524.322L544.441 512.765L550.259 497.499L571.031 506.514L591.903 497.499L597.721 512.765L571.031 524.322Z" fill="#222222"/>
<path d="M885.017 489.106L864.144 479.957L843.272 489.095L837.454 473.829L864.144 462.149L890.834 473.829L885.017 489.106Z" fill="#222222"/>
<path d="M855.251 524.322L828.661 512.765L834.479 497.499L855.251 506.514L876.124 497.499L881.941 512.765L855.251 524.322Z" fill="#222222"/>
<path d="M103.411 471.331L82.5382 462.194L61.6658 471.331L55.8481 456.065L82.5382 444.385L109.228 456.065L103.411 471.331Z" fill="#222222"/>
<path d="M73.6453 506.559L47.0552 495.001L52.8728 479.724L73.6453 488.75L94.5177 479.724L100.335 495.001L73.6453 506.559Z" fill="#222222"/>
<path d="M387.631 471.331L366.758 462.194L345.886 471.331L340.068 456.065L366.758 444.385L393.448 456.065L387.631 471.331Z" fill="#222222"/>
<path d="M357.866 506.559L331.275 495.001L337.093 479.724L357.866 488.75L378.738 479.724L384.556 495.001L357.866 506.559Z" fill="#222222"/>
<path d="M671.851 471.331L650.979 462.194L630.106 471.331L624.289 456.065L650.979 444.385L677.669 456.065L671.851 471.331Z" fill="#222222"/>
<path d="M642.086 506.559L615.496 495.001L621.313 479.724L642.086 488.75L662.958 479.724L668.776 495.001L642.086 506.559Z" fill="#222222"/>
<path d="M956.071 471.331L935.199 462.194L914.326 471.331L908.509 456.065L935.199 444.385L961.889 456.065L956.071 471.331Z" fill="#222222"/>
<path d="M926.306 506.559L899.716 495.001L905.533 479.724L926.306 488.75L947.178 479.724L952.996 495.001L926.306 506.559Z" fill="#222222"/>
<path d="M32.3559 418.04L11.4835 408.902L-9.3889 418.04L-15.2065 402.763L11.4835 391.094L38.1736 402.774L32.3559 418.04Z" fill="#222222"/>
<path d="M2.59062 453.267L-23.9995 441.71L-18.1819 426.433L2.59062 435.448L23.463 426.433L29.2807 441.71L2.59062 453.267Z" fill="#222222"/>
<path d="M316.576 418.04L295.704 408.902L274.831 418.04L269.014 402.763L295.704 391.094L322.394 402.774L316.576 418.04Z" fill="#222222"/>
<path d="M286.811 453.267L260.221 441.71L266.038 426.433L286.811 435.448L307.683 426.433L313.501 441.71L286.811 453.267Z" fill="#222222"/>
<path d="M600.796 418.04L579.924 408.902L559.052 418.04L553.234 402.763L579.924 391.094L606.614 402.774L600.796 418.04Z" fill="#222222"/>
<path d="M571.031 453.267L544.441 441.71L550.259 426.433L571.031 435.448L591.903 426.433L597.721 441.71L571.031 453.267Z" fill="#222222"/>
<path d="M885.017 418.04L864.144 408.902L843.272 418.04L837.454 402.763L864.144 391.094L890.834 402.774L885.017 418.04Z" fill="#222222"/>
<path d="M855.251 453.267L828.661 441.71L834.479 426.433L855.251 435.448L876.124 426.433L881.941 441.71L855.251 453.267Z" fill="#222222"/>
<path d="M103.422 400.287L82.5383 391.15L61.6659 400.276L55.8594 385.01L82.5383 373.33L109.228 385.01L103.422 400.287Z" fill="#222222"/>
<path d="M73.6453 435.504L47.0552 423.946L52.8728 408.68L73.6453 417.695L94.5177 408.68L100.335 423.946L73.6453 435.504Z" fill="#222222"/>
<path d="M387.642 400.287L366.759 391.15L345.886 400.276L340.08 385.01L366.759 373.33L393.449 385.01L387.642 400.287Z" fill="#222222"/>
<path d="M357.866 435.504L331.275 423.946L337.093 408.68L357.866 417.695L378.738 408.68L384.556 423.946L357.866 435.504Z" fill="#222222"/>
<path d="M671.862 400.287L650.979 391.15L630.106 400.276L624.3 385.01L650.979 373.33L677.669 385.01L671.862 400.287Z" fill="#222222"/>
<path d="M642.086 435.504L615.496 423.946L621.313 408.68L642.086 417.695L662.958 408.68L668.776 423.946L642.086 435.504Z" fill="#222222"/>
<path d="M956.082 400.287L935.199 391.15L914.327 400.276L908.52 385.01L935.199 373.33L961.889 385.01L956.082 400.287Z" fill="#222222"/>
<path d="M926.306 435.504L899.716 423.946L905.533 408.68L926.306 417.695L947.178 408.68L952.996 423.946L926.306 435.504Z" fill="#222222"/>
<path d="M32.3559 346.984L11.4835 337.847L-9.3889 346.984L-15.2065 331.719L11.4835 320.039L38.1736 331.719L32.3559 346.984Z" fill="#222222"/>
<path d="M2.57952 382.212L-23.9995 370.655L-18.193 355.378L2.57952 364.404L23.463 355.378L29.2696 370.655L2.57952 382.212Z" fill="#222222"/>
<path d="M316.576 346.984L295.704 337.847L274.831 346.984L269.014 331.719L295.704 320.039L322.394 331.719L316.576 346.984Z" fill="#222222"/>
<path d="M286.8 382.212L260.221 370.655L266.027 355.378L286.8 364.404L307.683 355.378L313.49 370.655L286.8 382.212Z" fill="#222222"/>
<path d="M600.796 346.984L579.924 337.847L559.052 346.984L553.234 331.719L579.924 320.039L606.614 331.719L600.796 346.984Z" fill="#222222"/>
<path d="M571.02 382.212L544.441 370.655L550.247 355.378L571.02 364.404L591.903 355.378L597.71 370.655L571.02 382.212Z" fill="#222222"/>
<path d="M885.017 346.984L864.144 337.847L843.272 346.984L837.454 331.719L864.144 320.039L890.834 331.719L885.017 346.984Z" fill="#222222"/>
<path d="M855.24 382.212L828.661 370.655L834.468 355.378L855.24 364.404L876.124 355.378L881.93 370.655L855.24 382.212Z" fill="#222222"/>
<path d="M103.411 329.221L82.5382 320.083L61.6658 329.221L55.8481 313.944L82.5382 302.275L109.228 313.955L103.411 329.221Z" fill="#222222"/>
<path d="M73.6342 364.448L47.0552 352.891L52.8728 337.614L73.6342 346.629L94.5177 337.614L100.324 352.891L73.6342 364.448Z" fill="#222222"/>
<path d="M387.631 329.221L366.758 320.083L345.886 329.221L340.068 313.944L366.758 302.275L393.448 313.955L387.631 329.221Z" fill="#222222"/>
<path d="M357.854 364.448L331.275 352.891L337.093 337.614L357.854 346.629L378.738 337.614L384.544 352.891L357.854 364.448Z" fill="#222222"/>
<path d="M671.851 329.221L650.979 320.083L630.106 329.221L624.289 313.944L650.979 302.275L677.669 313.955L671.851 329.221Z" fill="#222222"/>
<path d="M642.075 364.448L615.496 352.891L621.313 337.614L642.075 346.629L662.958 337.614L668.765 352.891L642.075 364.448Z" fill="#222222"/>
<path d="M956.071 329.221L935.199 320.083L914.326 329.221L908.509 313.944L935.199 302.275L961.889 313.955L956.071 329.221Z" fill="#222222"/>
<path d="M926.295 364.448L899.716 352.891L905.533 337.614L926.295 346.629L947.178 337.614L952.985 352.891L926.295 364.448Z" fill="#222222"/>
<path d="M174.477 524.622L153.593 515.485L132.721 524.622L126.903 509.356L153.593 497.677L180.283 509.356L174.477 524.622Z" fill="#222222"/>
<path d="M144.7 559.85L118.11 548.292L123.928 533.027L144.7 542.042L165.573 533.027L171.391 548.292L144.7 559.85Z" fill="#222222"/>
<path d="M458.698 524.622L437.814 515.485L416.942 524.622L411.124 509.356L437.814 497.677L464.504 509.356L458.698 524.622Z" fill="#222222"/>
<path d="M428.921 559.85L402.331 548.292L408.149 533.027L428.921 542.042L449.794 533.027L455.611 548.292L428.921 559.85Z" fill="#222222"/>
<path d="M742.917 524.622L722.034 515.485L701.161 524.622L695.344 509.356L722.034 497.677L748.724 509.356L742.917 524.622Z" fill="#222222"/>
<path d="M713.141 559.85L686.551 548.292L692.368 533.027L713.141 542.042L734.013 533.027L739.831 548.292L713.141 559.85Z" fill="#222222"/>
<path d="M1027.14 524.622L1006.25 515.485L985.382 524.622L979.564 509.356L1006.25 497.677L1032.94 509.356L1027.14 524.622Z" fill="#222222"/>
<path d="M997.362 559.85L970.771 548.292L976.589 533.027L997.362 542.042L1018.23 533.027L1024.05 548.292L997.362 559.85Z" fill="#222222"/>
<path d="M174.477 595.677L153.593 586.54L132.721 595.677L126.903 580.411L153.593 568.732L180.283 580.411L174.477 595.677Z" fill="#222222"/>
<path d="M458.698 595.677L437.814 586.54L416.942 595.677L411.124 580.411L437.814 568.732L464.504 580.411L458.698 595.677Z" fill="#222222"/>
<path d="M742.917 595.677L722.034 586.54L701.161 595.677L695.344 580.411L722.034 568.732L748.724 580.411L742.917 595.677Z" fill="#222222"/>
<path d="M1027.14 595.677L1006.25 586.54L985.382 595.677L979.564 580.411L1006.25 568.732L1032.94 580.411L1027.14 595.677Z" fill="#222222"/>
<path d="M245.533 506.858L224.649 497.721L203.788 506.858L197.97 491.581L224.649 479.913L251.339 491.593L245.533 506.858Z" fill="#222222"/>
<path d="M215.756 542.086L189.166 530.529L194.984 515.252L215.756 524.267L236.629 515.252L242.446 530.529L215.756 542.086Z" fill="#222222"/>
<path d="M529.753 506.858L508.869 497.721L488.008 506.858L482.19 491.581L508.869 479.913L535.559 491.593L529.753 506.858Z" fill="#222222"/>
<path d="M499.976 542.086L473.386 530.529L479.204 515.252L499.976 524.267L520.849 515.252L526.666 530.529L499.976 542.086Z" fill="#222222"/>
<path d="M813.973 506.858L793.09 497.721L772.228 506.858L766.411 491.581L793.09 479.913L819.78 491.593L813.973 506.858Z" fill="#222222"/>
<path d="M784.197 542.086L757.606 530.529L763.424 515.252L784.197 524.267L805.069 515.252L810.887 530.529L784.197 542.086Z" fill="#222222"/>
<path d="M1098.19 506.858L1077.31 497.721L1056.45 506.858L1050.63 491.581L1077.31 479.913L1104 491.593L1098.19 506.858Z" fill="#222222"/>
<path d="M1068.42 542.086L1041.83 530.529L1047.64 515.252L1068.42 524.267L1089.29 515.252L1095.11 530.529L1068.42 542.086Z" fill="#222222"/>
<path d="M245.533 577.913L224.649 568.776L203.788 577.913L197.97 562.637L224.649 550.968L251.339 562.648L245.533 577.913Z" fill="#222222"/>
<path d="M529.753 577.913L508.869 568.776L488.008 577.913L482.19 562.637L508.869 550.968L535.559 562.648L529.753 577.913Z" fill="#222222"/>
<path d="M813.973 577.913L793.09 568.776L772.228 577.913L766.411 562.637L793.09 550.968L819.78 562.648L813.973 577.913Z" fill="#222222"/>
<path d="M1098.19 577.913L1077.31 568.776L1056.45 577.913L1050.63 562.637L1077.31 550.968L1104 562.648L1098.19 577.913Z" fill="#222222"/>
<path d="M174.466 453.578L153.593 444.441L132.721 453.567L126.903 438.301L153.593 426.622L180.283 438.301L174.466 453.578Z" fill="#222222"/>
<path d="M144.689 488.795L118.11 477.237L123.917 461.972L144.689 470.987L165.573 461.972L171.379 477.237L144.689 488.795Z" fill="#222222"/>
<path d="M458.686 453.578L437.814 444.441L416.942 453.567L411.124 438.301L437.814 426.622L464.504 438.301L458.686 453.578Z" fill="#222222"/>
<path d="M428.91 488.795L402.331 477.237L408.138 461.972L428.91 470.987L449.794 461.972L455.6 477.237L428.91 488.795Z" fill="#222222"/>
<path d="M742.906 453.578L722.034 444.441L701.161 453.567L695.344 438.301L722.034 426.622L748.724 438.301L742.906 453.578Z" fill="#222222"/>
<path d="M713.13 488.795L686.551 477.237L692.357 461.972L713.13 470.987L734.013 461.972L739.82 477.237L713.13 488.795Z" fill="#222222"/>
<path d="M1027.13 453.578L1006.25 444.441L985.382 453.567L979.564 438.301L1006.25 426.622L1032.94 438.301L1027.13 453.578Z" fill="#222222"/>
<path d="M997.351 488.795L970.771 477.237L976.578 461.972L997.351 470.987L1018.23 461.972L1024.04 477.237L997.351 488.795Z" fill="#222222"/>
<path d="M245.521 435.803L224.649 426.666L203.777 435.803L197.959 420.538L224.649 408.858L251.339 420.538L245.521 435.803Z" fill="#222222"/>
<path d="M215.756 471.031L189.166 459.473L194.984 444.208L215.756 453.223L236.629 444.208L242.435 459.473L215.756 471.031Z" fill="#222222"/>
<path d="M529.742 435.803L508.869 426.666L487.997 435.803L482.179 420.538L508.869 408.858L535.559 420.538L529.742 435.803Z" fill="#222222"/>
<path d="M499.976 471.031L473.386 459.473L479.204 444.208L499.976 453.223L520.849 444.208L526.655 459.473L499.976 471.031Z" fill="#222222"/>
<path d="M813.962 435.803L793.089 426.666L772.217 435.803L766.399 420.538L793.089 408.858L819.78 420.538L813.962 435.803Z" fill="#222222"/>
<path d="M784.197 471.031L757.606 459.473L763.424 444.208L784.197 453.223L805.069 444.208L810.876 459.473L784.197 471.031Z" fill="#222222"/>
<path d="M1098.18 435.803L1077.31 426.666L1056.44 435.803L1050.62 420.538L1077.31 408.858L1104 420.538L1098.18 435.803Z" fill="#222222"/>
<path d="M1068.42 471.031L1041.83 459.473L1047.64 444.208L1068.42 453.223L1089.29 444.208L1095.1 459.473L1068.42 471.031Z" fill="#222222"/>
<path d="M174.466 382.512L153.593 373.375L132.721 382.512L126.903 367.235L153.593 355.567L180.283 367.246L174.466 382.512Z" fill="#222222"/>
<path d="M144.7 417.74L118.11 406.182L123.928 390.905L144.7 399.92L165.573 390.905L171.391 406.182L144.7 417.74Z" fill="#222222"/>
<path d="M458.686 382.512L437.814 373.375L416.942 382.512L411.124 367.235L437.814 355.567L464.504 367.246L458.686 382.512Z" fill="#222222"/>
<path d="M428.921 417.74L402.331 406.182L408.149 390.905L428.921 399.92L449.794 390.905L455.611 406.182L428.921 417.74Z" fill="#222222"/>
<path d="M742.906 382.512L722.034 373.375L701.161 382.512L695.344 367.235L722.034 355.567L748.724 367.246L742.906 382.512Z" fill="#222222"/>
<path d="M713.141 417.74L686.551 406.182L692.368 390.905L713.141 399.92L734.013 390.905L739.831 406.182L713.141 417.74Z" fill="#222222"/>
<path d="M1027.13 382.512L1006.25 373.375L985.382 382.512L979.564 367.235L1006.25 355.567L1032.94 367.246L1027.13 382.512Z" fill="#222222"/>
<path d="M997.362 417.74L970.771 406.182L976.589 390.905L997.362 399.92L1018.23 390.905L1024.05 406.182L997.362 417.74Z" fill="#222222"/>
<path d="M245.521 364.759L224.649 355.622L203.777 364.748L197.959 349.482L224.649 337.803L251.339 349.482L245.521 364.759Z" fill="#222222"/>
<path d="M215.756 399.976L189.166 388.418L194.984 373.153L215.756 382.168L236.629 373.153L242.446 388.418L215.756 399.976Z" fill="#222222"/>
<path d="M529.742 364.759L508.869 355.622L487.997 364.748L482.179 349.482L508.869 337.803L535.559 349.482L529.742 364.759Z" fill="#222222"/>
<path d="M499.976 399.976L473.386 388.418L479.204 373.153L499.976 382.168L520.849 373.153L526.666 388.418L499.976 399.976Z" fill="#222222"/>
<path d="M813.962 364.759L793.089 355.622L772.217 364.748L766.399 349.482L793.089 337.803L819.78 349.482L813.962 364.759Z" fill="#222222"/>
<path d="M784.197 399.976L757.606 388.418L763.424 373.153L784.197 382.168L805.069 373.153L810.887 388.418L784.197 399.976Z" fill="#222222"/>
<path d="M1098.18 364.759L1077.31 355.622L1056.44 364.748L1050.62 349.482L1077.31 337.803L1104 349.482L1098.18 364.759Z" fill="#222222"/>
<path d="M1068.42 399.976L1041.83 388.418L1047.64 373.153L1068.42 382.168L1089.29 373.153L1095.11 388.418L1068.42 399.976Z" fill="#222222"/>
<path d="M174.477 311.457L153.593 302.32L132.721 311.457L126.903 296.191L153.593 284.512L180.283 296.191L174.477 311.457Z" fill="#222222"/>
<path d="M144.7 346.685L118.11 335.127L123.928 319.861L144.7 328.876L165.573 319.861L171.391 335.127L144.7 346.685Z" fill="#222222"/>
<path d="M458.698 311.457L437.814 302.32L416.942 311.457L411.124 296.191L437.814 284.512L464.504 296.191L458.698 311.457Z" fill="#222222"/>
<path d="M428.921 346.685L402.331 335.127L408.149 319.861L428.921 328.876L449.794 319.861L455.611 335.127L428.921 346.685Z" fill="#222222"/>
<path d="M742.917 311.457L722.034 302.32L701.161 311.457L695.344 296.191L722.034 284.512L748.724 296.191L742.917 311.457Z" fill="#222222"/>
<path d="M713.141 346.685L686.551 335.127L692.368 319.861L713.141 328.876L734.013 319.861L739.831 335.127L713.141 346.685Z" fill="#222222"/>
<path d="M1027.14 311.457L1006.25 302.32L985.382 311.457L979.564 296.191L1006.25 284.512L1032.94 296.191L1027.14 311.457Z" fill="#222222"/>
<path d="M997.362 346.685L970.771 335.127L976.589 319.861L997.362 328.876L1018.23 319.861L1024.05 335.127L997.362 346.685Z" fill="#222222"/>
<path d="M245.533 293.693L224.649 284.556L203.788 293.693L197.97 278.416L224.649 266.748L251.339 278.427L245.533 293.693Z" fill="#222222"/>
<path d="M215.756 328.921L189.166 317.363L194.984 302.087L215.756 311.113L236.629 302.087L242.446 317.363L215.756 328.921Z" fill="#222222"/>
<path d="M529.753 293.693L508.869 284.556L488.008 293.693L482.19 278.416L508.869 266.748L535.559 278.427L529.753 293.693Z" fill="#222222"/>
<path d="M499.976 328.921L473.386 317.363L479.204 302.087L499.976 311.113L520.849 302.087L526.666 317.363L499.976 328.921Z" fill="#222222"/>
<path d="M813.973 293.693L793.09 284.556L772.228 293.693L766.411 278.416L793.09 266.748L819.78 278.427L813.973 293.693Z" fill="#222222"/>
<path d="M784.197 328.921L757.606 317.363L763.424 302.087L784.197 311.113L805.069 302.087L810.887 317.363L784.197 328.921Z" fill="#222222"/>
<path d="M1098.19 293.693L1077.31 284.556L1056.45 293.693L1050.63 278.416L1077.31 266.748L1104 278.427L1098.19 293.693Z" fill="#222222"/>
<path d="M1068.42 328.921L1041.83 317.363L1047.64 302.087L1068.42 311.113L1089.29 302.087L1095.11 317.363L1068.42 328.921Z" fill="#222222"/>
<path d="M174.466 240.402L153.593 231.265L132.721 240.402L126.903 225.136L153.593 213.456L180.283 225.136L174.466 240.402Z" fill="#222222"/>
<path d="M144.689 275.63L118.11 264.072L123.917 248.806L144.689 257.821L165.562 248.806L171.379 264.072L144.689 275.63Z" fill="#222222"/>
<path d="M458.687 240.402L437.814 231.265L416.942 240.402L411.124 225.136L437.814 213.456L464.504 225.136L458.687 240.402Z" fill="#222222"/>
<path d="M428.91 275.63L402.331 264.072L408.138 248.806L428.91 257.821L449.782 248.806L455.6 264.072L428.91 275.63Z" fill="#222222"/>
<path d="M742.906 240.402L722.034 231.265L701.161 240.402L695.344 225.136L722.034 213.456L748.724 225.136L742.906 240.402Z" fill="#222222"/>
<path d="M713.13 275.63L686.551 264.072L692.357 248.806L713.13 257.821L734.002 248.806L739.82 264.072L713.13 275.63Z" fill="#222222"/>
<path d="M1027.13 240.402L1006.25 231.265L985.382 240.402L979.564 225.136L1006.25 213.456L1032.94 225.136L1027.13 240.402Z" fill="#222222"/>
<path d="M997.351 275.63L970.771 264.072L976.578 248.806L997.351 257.821L1018.22 248.806L1024.04 264.072L997.351 275.63Z" fill="#222222"/>
<path d="M245.521 222.638L224.649 213.501L203.777 222.638L197.959 207.361L224.649 195.693L251.339 207.372L245.521 222.638Z" fill="#222222"/>
<path d="M215.745 257.866L189.166 246.308L194.984 231.031L215.745 240.058L236.629 231.031L242.435 246.308L215.745 257.866Z" fill="#222222"/>
<path d="M529.742 222.638L508.869 213.501L487.997 222.638L482.179 207.361L508.869 195.693L535.559 207.372L529.742 222.638Z" fill="#222222"/>
<path d="M499.965 257.866L473.386 246.308L479.204 231.031L499.965 240.058L520.849 231.031L526.655 246.308L499.965 257.866Z" fill="#222222"/>
<path d="M813.962 222.638L793.089 213.501L772.217 222.638L766.399 207.361L793.089 195.693L819.78 207.372L813.962 222.638Z" fill="#222222"/>
<path d="M784.185 257.866L757.606 246.308L763.424 231.031L784.185 240.058L805.069 231.031L810.876 246.308L784.185 257.866Z" fill="#222222"/>
<path d="M1098.18 222.638L1077.31 213.501L1056.44 222.638L1050.62 207.361L1077.31 195.693L1104 207.372L1098.18 222.638Z" fill="#222222"/>
<path d="M1068.41 257.866L1041.83 246.308L1047.64 231.031L1068.41 240.058L1089.29 231.031L1095.1 246.308L1068.41 257.866Z" fill="#222222"/>
<path d="M174.466 169.358L153.593 160.221L132.721 169.347L126.903 154.081L153.593 142.401L180.283 154.081L174.466 169.358Z" fill="#222222"/>
<path d="M144.7 204.575L118.11 193.017L123.928 177.751L144.7 186.766L165.573 177.751L171.391 193.017L144.7 204.575Z" fill="#222222"/>
<path d="M458.687 169.358L437.814 160.221L416.942 169.347L411.124 154.081L437.814 142.401L464.504 154.081L458.687 169.358Z" fill="#222222"/>
<path d="M428.921 204.575L402.331 193.017L408.149 177.751L428.921 186.766L449.794 177.751L455.611 193.017L428.921 204.575Z" fill="#222222"/>
<path d="M742.906 169.358L722.034 160.221L701.161 169.347L695.344 154.081L722.034 142.401L748.724 154.081L742.906 169.358Z" fill="#222222"/>
<path d="M713.141 204.575L686.551 193.017L692.368 177.751L713.141 186.766L734.013 177.751L739.831 193.017L713.141 204.575Z" fill="#222222"/>
<path d="M1027.13 169.358L1006.25 160.221L985.382 169.347L979.564 154.081L1006.25 142.401L1032.94 154.081L1027.13 169.358Z" fill="#222222"/>
<path d="M997.362 204.575L970.771 193.017L976.589 177.751L997.362 186.766L1018.23 177.751L1024.05 193.017L997.362 204.575Z" fill="#222222"/>
<path d="M245.521 151.583L224.649 142.446L203.777 151.583L197.959 136.317L224.649 124.638L251.339 136.317L245.521 151.583Z" fill="#222222"/>
<path d="M215.756 186.811L189.166 175.253L194.984 159.988L215.756 169.003L236.629 159.988L242.446 175.253L215.756 186.811Z" fill="#222222"/>
<path d="M529.742 151.583L508.869 142.446L487.997 151.583L482.179 136.317L508.869 124.638L535.559 136.317L529.742 151.583Z" fill="#222222"/>
<path d="M499.976 186.811L473.386 175.253L479.204 159.988L499.976 169.003L520.849 159.988L526.666 175.253L499.976 186.811Z" fill="#222222"/>
<path d="M813.962 151.583L793.089 142.446L772.217 151.583L766.399 136.317L793.089 124.638L819.78 136.317L813.962 151.583Z" fill="#222222"/>
<path d="M784.197 186.811L757.606 175.253L763.424 159.988L784.197 169.003L805.069 159.988L810.887 175.253L784.197 186.811Z" fill="#222222"/>
<path d="M1098.18 151.583L1077.31 142.446L1056.44 151.583L1050.62 136.317L1077.31 124.638L1104 136.317L1098.18 151.583Z" fill="#222222"/>
<path d="M1068.42 186.811L1041.83 175.253L1047.64 159.988L1068.42 169.003L1089.29 159.988L1095.11 175.253L1068.42 186.811Z" fill="#222222"/>
<path d="M174.466 98.2918L153.593 89.1545L132.721 98.2918L126.903 83.0149L153.593 71.3464L180.283 83.0261L174.466 98.2918Z" fill="#222222"/>
<path d="M144.7 133.52L118.11 121.962L123.928 106.685L144.7 115.7L165.573 106.685L171.391 121.962L144.7 133.52Z" fill="#222222"/>
<path d="M458.686 98.2918L437.814 89.1545L416.942 98.2918L411.124 83.0149L437.814 71.3464L464.504 83.0261L458.686 98.2918Z" fill="#222222"/>
<path d="M428.921 133.52L402.331 121.962L408.149 106.685L428.921 115.7L449.794 106.685L455.611 121.962L428.921 133.52Z" fill="#222222"/>
<path d="M742.906 98.2918L722.034 89.1545L701.161 98.2918L695.344 83.0149L722.034 71.3464L748.724 83.0261L742.906 98.2918Z" fill="#222222"/>
<path d="M713.141 133.52L686.551 121.962L692.368 106.685L713.141 115.7L734.013 106.685L739.831 121.962L713.141 133.52Z" fill="#222222"/>
<path d="M1027.13 98.2918L1006.25 89.1545L985.382 98.2918L979.564 83.0149L1006.25 71.3464L1032.94 83.0261L1027.13 98.2918Z" fill="#222222"/>
<path d="M997.362 133.52L970.771 121.962L976.589 106.685L997.362 115.7L1018.23 106.685L1024.05 121.962L997.362 133.52Z" fill="#222222"/>
<path d="M245.533 80.5391L224.649 71.4019L203.777 80.5391L197.97 65.2623L224.649 53.5826L251.339 65.2623L245.533 80.5391Z" fill="#222222"/>
<path d="M215.756 115.756L189.166 104.198L194.984 88.9325L215.756 97.9476L236.629 88.9325L242.446 104.198L215.756 115.756Z" fill="#222222"/>
<path d="M529.753 80.5391L508.869 71.4019L487.997 80.5391L482.19 65.2623L508.869 53.5826L535.559 65.2623L529.753 80.5391Z" fill="#222222"/>
<path d="M499.976 115.756L473.386 104.198L479.204 88.9325L499.976 97.9476L520.849 88.9325L526.666 104.198L499.976 115.756Z" fill="#222222"/>
<path d="M813.973 80.5391L793.09 71.4019L772.217 80.5391L766.411 65.2623L793.09 53.5826L819.78 65.2623L813.973 80.5391Z" fill="#222222"/>
<path d="M784.197 115.756L757.606 104.198L763.424 88.9325L784.197 97.9476L805.069 88.9325L810.887 104.198L784.197 115.756Z" fill="#222222"/>
<path d="M1098.19 80.5391L1077.31 71.4019L1056.44 80.5391L1050.63 65.2623L1077.31 53.5826L1104 65.2623L1098.19 80.5391Z" fill="#222222"/>
<path d="M1068.42 115.756L1041.83 104.198L1047.64 88.9325L1068.42 97.9476L1089.29 88.9325L1095.11 104.198L1068.42 115.756Z" fill="#222222"/>
<path d="M174.466 27.2367L153.593 18.0995L132.721 27.2367L126.903 11.971L153.593 0.29129L180.283 11.971L174.466 27.2367Z" fill="#222222"/>
<path d="M144.689 62.4645L118.11 50.9069L123.917 35.6412L144.689 44.6563L165.573 35.6412L171.379 50.9069L144.689 62.4645Z" fill="#222222"/>
<path d="M458.686 27.2367L437.814 18.0995L416.942 27.2367L411.124 11.971L437.814 0.29129L464.504 11.971L458.686 27.2367Z" fill="#222222"/>
<path d="M428.91 62.4645L402.331 50.9069L408.138 35.6412L428.91 44.6563L449.794 35.6412L455.6 50.9069L428.91 62.4645Z" fill="#222222"/>
<path d="M742.906 27.2367L722.034 18.0995L701.161 27.2367L695.344 11.971L722.034 0.29129L748.724 11.971L742.906 27.2367Z" fill="#222222"/>
<path d="M713.13 62.4645L686.551 50.9069L692.357 35.6412L713.13 44.6563L734.013 35.6412L739.82 50.9069L713.13 62.4645Z" fill="#222222"/>
<path d="M1027.13 27.2367L1006.25 18.0995L985.382 27.2367L979.564 11.971L1006.25 0.29129L1032.94 11.971L1027.13 27.2367Z" fill="#222222"/>
<path d="M997.351 62.4645L970.771 50.9069L976.578 35.6412L997.351 44.6563L1018.23 35.6412L1024.04 50.9069L997.351 62.4645Z" fill="#222222"/>
<path d="M2.57952 26.937L-23.9995 15.3794L-18.1819 0.10257L2.57952 9.12878L23.463 0.10257L29.2696 15.3794L2.57952 26.937Z" fill="#222222"/>
<path d="M286.8 26.937L260.221 15.3794L266.038 0.10257L286.8 9.12878L307.683 0.10257L313.49 15.3794L286.8 26.937Z" fill="#222222"/>
<path d="M571.02 26.937L544.441 15.3794L550.259 0.10257L571.02 9.12878L591.903 0.10257L597.71 15.3794L571.02 26.937Z" fill="#222222"/>
<path d="M855.24 26.937L828.661 15.3794L834.479 0.10257L855.24 9.12878L876.124 0.10257L881.93 15.3794L855.24 26.937Z" fill="#222222"/>
<path d="M32.3559 275.929L11.4835 266.792L-9.38891 275.929L-15.2065 260.653L11.4835 248.984L38.1736 260.664L32.3559 275.929Z" fill="#222222"/>
<path d="M2.59063 311.157L-23.9995 299.6L-18.1819 284.323L2.59063 293.349L23.4631 284.323L29.2807 299.6L2.59063 311.157Z" fill="#222222"/>
<path d="M316.576 275.929L295.704 266.792L274.831 275.929L269.014 260.653L295.704 248.984L322.394 260.664L316.576 275.929Z" fill="#222222"/>
<path d="M286.811 311.157L260.221 299.6L266.038 284.323L286.811 293.349L307.683 284.323L313.501 299.6L286.811 311.157Z" fill="#222222"/>
<path d="M600.796 275.929L579.924 266.792L559.052 275.929L553.234 260.653L579.924 248.984L606.614 260.664L600.796 275.929Z" fill="#222222"/>
<path d="M571.031 311.157L544.441 299.6L550.259 284.323L571.031 293.349L591.903 284.323L597.721 299.6L571.031 311.157Z" fill="#222222"/>
<path d="M885.017 275.929L864.144 266.792L843.272 275.929L837.454 260.653L864.144 248.984L890.834 260.664L885.017 275.929Z" fill="#222222"/>
<path d="M855.251 311.157L828.661 299.6L834.479 284.323L855.251 293.349L876.124 284.323L881.941 299.6L855.251 311.157Z" fill="#222222"/>
<path d="M103.411 258.166L82.5382 249.028L61.6658 258.166L55.8481 242.889L82.5382 231.22L109.228 242.889L103.411 258.166Z" fill="#222222"/>
<path d="M73.6453 293.393L47.0552 281.825L52.8728 266.559L73.6453 275.574L94.5177 266.559L100.335 281.825L73.6453 293.393Z" fill="#222222"/>
<path d="M387.631 258.166L366.758 249.028L345.886 258.166L340.068 242.889L366.758 231.22L393.448 242.889L387.631 258.166Z" fill="#222222"/>
<path d="M357.866 293.393L331.275 281.825L337.093 266.559L357.866 275.574L378.738 266.559L384.556 281.825L357.866 293.393Z" fill="#222222"/>
<path d="M671.851 258.166L650.979 249.028L630.106 258.166L624.289 242.889L650.979 231.22L677.669 242.889L671.851 258.166Z" fill="#222222"/>
<path d="M642.086 293.393L615.496 281.825L621.313 266.559L642.086 275.574L662.958 266.559L668.776 281.825L642.086 293.393Z" fill="#222222"/>
<path d="M956.071 258.166L935.199 249.028L914.326 258.166L908.509 242.889L935.199 231.22L961.889 242.889L956.071 258.166Z" fill="#222222"/>
<path d="M926.306 293.393L899.716 281.825L905.533 266.559L926.306 275.574L947.178 266.559L952.996 281.825L926.306 293.393Z" fill="#222222"/>
<path d="M32.3674 204.874L11.4839 195.737L-9.38854 204.874L-15.1951 189.609L11.4839 177.929L38.1739 189.609L32.3674 204.874Z" fill="#222222"/>
<path d="M2.59062 240.102L-23.9995 228.545L-18.1819 213.279L2.59062 222.294L23.463 213.279L29.2807 228.545L2.59062 240.102Z" fill="#222222"/>
<path d="M316.587 204.874L295.704 195.737L274.831 204.874L269.025 189.609L295.704 177.929L322.394 189.609L316.587 204.874Z" fill="#222222"/>
<path d="M286.811 240.102L260.221 228.545L266.038 213.279L286.811 222.294L307.683 213.279L313.501 228.545L286.811 240.102Z" fill="#222222"/>
<path d="M600.808 204.874L579.924 195.737L559.052 204.874L553.245 189.609L579.924 177.929L606.614 189.609L600.808 204.874Z" fill="#222222"/>
<path d="M571.031 240.102L544.441 228.545L550.259 213.279L571.031 222.294L591.903 213.279L597.721 228.545L571.031 240.102Z" fill="#222222"/>
<path d="M885.028 204.874L864.144 195.737L843.272 204.874L837.465 189.609L864.144 177.929L890.834 189.609L885.028 204.874Z" fill="#222222"/>
<path d="M855.251 240.102L828.661 228.545L834.479 213.279L855.251 222.294L876.124 213.279L881.941 228.545L855.251 240.102Z" fill="#222222"/>
<path d="M103.411 187.111L82.5382 177.973L61.6658 187.111L55.8481 171.845L82.5382 160.165L109.228 171.845L103.411 187.111Z" fill="#222222"/>
<path d="M73.6342 222.338L47.0552 210.781L52.8617 195.504L73.6342 204.53L94.5177 195.504L100.324 210.781L73.6342 222.338Z" fill="#222222"/>
<path d="M387.631 187.111L366.758 177.973L345.886 187.111L340.068 171.845L366.758 160.165L393.448 171.845L387.631 187.111Z" fill="#222222"/>
<path d="M357.854 222.338L331.275 210.781L337.082 195.504L357.854 204.53L378.738 195.504L384.544 210.781L357.854 222.338Z" fill="#222222"/>
<path d="M671.851 187.111L650.979 177.973L630.106 187.111L624.289 171.845L650.979 160.165L677.669 171.845L671.851 187.111Z" fill="#222222"/>
<path d="M642.075 222.338L615.496 210.781L621.302 195.504L642.075 204.53L662.958 195.504L668.765 210.781L642.075 222.338Z" fill="#222222"/>
<path d="M956.071 187.111L935.199 177.973L914.326 187.111L908.509 171.845L935.199 160.165L961.889 171.845L956.071 187.111Z" fill="#222222"/>
<path d="M926.295 222.338L899.716 210.781L905.522 195.504L926.295 204.53L947.178 195.504L952.985 210.781L926.295 222.338Z" fill="#222222"/>
<path d="M32.3559 133.83L11.4835 124.693L-9.38891 133.83L-15.2065 118.554L11.4835 106.874L38.1736 118.554L32.3559 133.83Z" fill="#222222"/>
<path d="M2.57952 169.047L-23.9995 157.49L-18.1819 142.224L2.57952 151.239L23.463 142.224L29.2696 157.49L2.57952 169.047Z" fill="#222222"/>
<path d="M316.576 133.83L295.704 124.693L274.831 133.83L269.014 118.554L295.704 106.874L322.394 118.554L316.576 133.83Z" fill="#222222"/>
<path d="M286.8 169.047L260.221 157.49L266.038 142.224L286.8 151.239L307.683 142.224L313.49 157.49L286.8 169.047Z" fill="#222222"/>
<path d="M600.796 133.83L579.924 124.693L559.052 133.83L553.234 118.554L579.924 106.874L606.614 118.554L600.796 133.83Z" fill="#222222"/>
<path d="M571.02 169.047L544.441 157.49L550.259 142.224L571.02 151.239L591.903 142.224L597.71 157.49L571.02 169.047Z" fill="#222222"/>
<path d="M885.017 133.83L864.144 124.693L843.272 133.83L837.454 118.554L864.144 106.874L890.834 118.554L885.017 133.83Z" fill="#222222"/>
<path d="M855.24 169.047L828.661 157.49L834.479 142.224L855.24 151.239L876.124 142.224L881.93 157.49L855.24 169.047Z" fill="#222222"/>
<path d="M103.411 116.056L82.5382 106.918L61.6658 116.056L55.8481 100.79L82.5382 89.1101L109.228 100.79L103.411 116.056Z" fill="#222222"/>
<path d="M73.6453 151.283L47.0552 139.726L52.8728 124.46L73.6453 133.475L94.5177 124.46L100.335 139.726L73.6453 151.283Z" fill="#222222"/>
<path d="M387.631 116.056L366.758 106.918L345.886 116.056L340.068 100.79L366.758 89.1101L393.448 100.79L387.631 116.056Z" fill="#222222"/>
<path d="M357.866 151.283L331.275 139.726L337.093 124.46L357.866 133.475L378.738 124.46L384.556 139.726L357.866 151.283Z" fill="#222222"/>
<path d="M671.851 116.056L650.979 106.918L630.106 116.056L624.289 100.79L650.979 89.1101L677.669 100.79L671.851 116.056Z" fill="#222222"/>
<path d="M642.086 151.283L615.496 139.726L621.313 124.46L642.086 133.475L662.958 124.46L668.776 139.726L642.086 151.283Z" fill="#222222"/>
<path d="M956.071 116.056L935.199 106.918L914.326 116.056L908.509 100.79L935.199 89.1101L961.889 100.79L956.071 116.056Z" fill="#222222"/>
<path d="M926.306 151.283L899.716 139.726L905.533 124.46L926.306 133.475L947.178 124.46L952.996 139.726L926.306 151.283Z" fill="#222222"/>
<path d="M32.3559 62.7643L11.4835 53.627L-9.38891 62.7643L-15.2065 47.4985L11.4835 35.8188L38.1736 47.4985L32.3559 62.7643Z" fill="#222222"/>
<path d="M2.59062 97.992L-23.9995 86.4345L-18.1819 71.1577L2.59062 80.1839L23.463 71.1577L29.2807 86.4345L2.59062 97.992Z" fill="#222222"/>
<path d="M316.576 62.7643L295.704 53.627L274.831 62.7643L269.014 47.4985L295.704 35.8188L322.394 47.4985L316.576 62.7643Z" fill="#222222"/>
<path d="M286.811 97.992L260.221 86.4345L266.038 71.1577L286.811 80.1839L307.683 71.1577L313.501 86.4345L286.811 97.992Z" fill="#222222"/>
<path d="M600.796 62.7643L579.924 53.627L559.052 62.7643L553.234 47.4985L579.924 35.8188L606.614 47.4985L600.796 62.7643Z" fill="#222222"/>
<path d="M571.031 97.992L544.441 86.4345L550.259 71.1577L571.031 80.1839L591.903 71.1577L597.721 86.4345L571.031 97.992Z" fill="#222222"/>
<path d="M885.017 62.7643L864.144 53.627L843.272 62.7643L837.454 47.4985L864.144 35.8188L890.834 47.4985L885.017 62.7643Z" fill="#222222"/>
<path d="M855.251 97.992L828.661 86.4345L834.479 71.1577L855.251 80.1839L876.124 71.1577L881.941 86.4345L855.251 97.992Z" fill="#222222"/>
<path d="M103.422 45.0005L82.5382 35.8632L61.6658 45.0005L55.8481 29.7236L82.5382 18.0551L109.228 29.7236L103.422 45.0005Z" fill="#222222"/>
<path d="M73.6453 80.2282L47.0552 68.6596L52.8728 53.3939L73.6453 62.409L94.5177 53.3939L100.335 68.6596L73.6453 80.2282Z" fill="#222222"/>
<path d="M387.642 45.0005L366.758 35.8632L345.886 45.0005L340.068 29.7236L366.758 18.0551L393.448 29.7236L387.642 45.0005Z" fill="#222222"/>
<path d="M357.866 80.2282L331.275 68.6596L337.093 53.3939L357.866 62.409L378.738 53.3939L384.556 68.6596L357.866 80.2282Z" fill="#222222"/>
<path d="M671.862 45.0005L650.979 35.8632L630.106 45.0005L624.289 29.7236L650.979 18.0551L677.669 29.7236L671.862 45.0005Z" fill="#222222"/>
<path d="M642.086 80.2282L615.496 68.6596L621.313 53.3939L642.086 62.409L662.958 53.3939L668.776 68.6596L642.086 80.2282Z" fill="#222222"/>
<path d="M956.082 45.0005L935.199 35.8632L914.326 45.0005L908.509 29.7236L935.199 18.0551L961.889 29.7236L956.082 45.0005Z" fill="#222222"/>
<path d="M926.306 80.2282L899.716 68.6596L905.533 53.3939L926.306 62.409L947.178 53.3939L952.996 68.6596L926.306 80.2282Z" fill="#222222"/>
<path d="M73.6453 9.17319L47.0552 -2.38437L52.8728 -17.6501L73.6453 -8.63499L94.5177 -17.6501L100.335 -2.38437L73.6453 9.17319Z" fill="#222222"/>
<path d="M357.866 9.17319L331.275 -2.38437L337.093 -17.6501L357.866 -8.63499L378.738 -17.6501L384.556 -2.38437L357.866 9.17319Z" fill="#222222"/>
<path d="M642.086 9.17319L615.496 -2.38437L621.313 -17.6501L642.086 -8.63499L662.958 -17.6501L668.776 -2.38437L642.086 9.17319Z" fill="#222222"/>
<path d="M926.306 9.17319L899.716 -2.38437L905.533 -17.6501L926.306 -8.63499L947.178 -17.6501L952.996 -2.38437L926.306 9.17319Z" fill="#222222"/>
<path d="M245.521 9.48404L224.649 0.346802L203.777 9.47294L197.959 -5.7928L224.649 -17.4725L251.339 -5.7928L245.521 9.48404Z" fill="#222222"/>
<path d="M215.756 44.7007L189.166 33.1432L194.984 17.8774L215.756 26.8925L236.629 17.8774L242.446 33.1432L215.756 44.7007Z" fill="#222222"/>
<path d="M529.742 9.48404L508.869 0.346802L487.997 9.47294L482.179 -5.7928L508.869 -17.4725L535.559 -5.7928L529.742 9.48404Z" fill="#222222"/>
<path d="M499.976 44.7007L473.386 33.1432L479.204 17.8774L499.976 26.8925L520.849 17.8774L526.666 33.1432L499.976 44.7007Z" fill="#222222"/>
<path d="M813.962 9.48404L793.089 0.346802L772.217 9.47294L766.399 -5.7928L793.089 -17.4725L819.78 -5.7928L813.962 9.48404Z" fill="#222222"/>
<path d="M784.197 44.7007L757.606 33.1432L763.424 17.8774L784.197 26.8925L805.069 17.8774L810.887 33.1432L784.197 44.7007Z" fill="#222222"/>
<path d="M1098.18 9.48404L1077.31 0.346802L1056.44 9.47294L1050.62 -5.7928L1077.31 -17.4725L1104 -5.7928L1098.18 9.48404Z" fill="#222222"/>
<path d="M1068.42 44.7007L1041.83 33.1432L1047.64 17.8774L1068.42 26.8925L1089.29 17.8774L1095.11 33.1432L1068.42 44.7007Z" fill="#222222"/>
</g>
<defs>
<clipPath id="clip0_2_2577">
<rect width="1128" height="569" fill="#222222" transform="translate(-24)"/>
</clipPath>
</defs>
</svg>
